<?xml version="1.0" encoding="UTF-8"?>
<svg xmlns="http://www.w3.org/2000/svg" xmlns:xlink="http://www.w3.org/1999/xlink" width="49px" height="50px" viewBox="0 0 49 49" version="1.1">
<g id="surface1">
<path style=" stroke:none;fill-rule:nonzero;fill:rgb(99.215686%,78.039216%,35.686275%);fill-opacity:1;" d="M 40.449219 17.097656 C 40.449219 17.246094 40.421875 17.390625 40.363281 17.527344 C 40.304688 17.664062 40.222656 17.789062 40.117188 17.894531 L 40.109375 17.910156 C 39.589844 17.710938 39.011719 17.707031 38.492188 17.898438 L 38.484375 17.878906 C 38.355469 17.746094 38.257812 17.582031 38.207031 17.40625 C 38.15625 17.226562 38.152344 17.039062 38.191406 16.859375 C 38.230469 16.679688 38.3125 16.511719 38.433594 16.371094 C 38.554688 16.230469 38.707031 16.121094 38.878906 16.050781 C 39.054688 15.980469 39.242188 15.957031 39.429688 15.976562 C 39.613281 15.996094 39.792969 16.058594 39.945312 16.160156 C 40.101562 16.265625 40.230469 16.40625 40.316406 16.566406 C 40.40625 16.730469 40.449219 16.910156 40.449219 17.097656 Z M 40.449219 17.097656 "/>
<path style=" stroke:none;fill-rule:nonzero;fill:rgb(92.941176%,40%,29.803922%);fill-opacity:1;" d="M 41.554688 20.65625 L 41.554688 19.992188 C 41.554688 19.542969 41.417969 19.101562 41.160156 18.730469 C 40.902344 18.359375 40.535156 18.074219 40.109375 17.910156 L 40.117188 17.894531 C 40.273438 17.738281 40.382812 17.535156 40.429688 17.320312 C 40.472656 17.101562 40.449219 16.875 40.367188 16.671875 C 40.28125 16.464844 40.136719 16.289062 39.949219 16.164062 C 39.761719 16.039062 39.542969 15.972656 39.320312 15.96875 C 39.09375 15.96875 38.875 16.03125 38.683594 16.152344 C 38.496094 16.273438 38.347656 16.445312 38.257812 16.648438 C 38.167969 16.855469 38.144531 17.078125 38.183594 17.296875 C 38.222656 17.515625 38.328125 17.71875 38.484375 17.878906 L 38.492188 17.898438 C 38.097656 18.046875 37.75 18.300781 37.492188 18.628906 C 37.238281 18.960938 37.078125 19.355469 37.035156 19.769531 C 37.03125 19.796875 37.027344 20.355469 37.027344 20.863281 C 37.023438 21.292969 37.023438 21.679688 37.023438 21.679688 C 37.023438 22.273438 37.261719 22.839844 37.6875 23.261719 C 38.113281 23.679688 38.6875 23.914062 39.289062 23.914062 C 39.890625 23.914062 40.464844 23.679688 40.890625 23.261719 C 41.316406 22.839844 41.554688 22.273438 41.554688 21.679688 Z M 39.367188 14.398438 C 41.28125 14.398438 43.140625 15 44.679688 16.121094 C 46.214844 17.242188 47.347656 18.816406 47.910156 20.617188 C 48.472656 22.421875 48.433594 24.351562 47.800781 26.132812 C 47.167969 27.910156 45.972656 29.441406 44.394531 30.5 L 44.363281 30.453125 L 44.363281 27.449219 C 44.394531 27.125 44.359375 26.800781 44.253906 26.492188 C 44.152344 26.183594 43.984375 25.898438 43.765625 25.65625 C 43.542969 25.417969 43.277344 25.226562 42.976562 25.09375 C 42.675781 24.960938 42.347656 24.894531 42.019531 24.894531 L 41.449219 24.894531 L 41.027344 25.792969 C 40.878906 26.105469 40.644531 26.367188 40.347656 26.550781 C 40.050781 26.730469 39.707031 26.824219 39.359375 26.816406 C 39.007812 26.8125 38.667969 26.703125 38.382812 26.507812 C 38.09375 26.316406 37.867188 26.042969 37.734375 25.726562 L 37.363281 24.894531 L 36.71875 24.894531 C 36.386719 24.894531 36.0625 24.960938 35.761719 25.09375 C 35.460938 25.226562 35.191406 25.417969 34.972656 25.65625 C 34.75 25.898438 34.582031 26.183594 34.480469 26.492188 C 34.378906 26.800781 34.34375 27.125 34.375 27.449219 L 34.375 30.457031 L 34.34375 30.5 C 32.761719 29.441406 31.566406 27.910156 30.933594 26.132812 C 30.300781 24.351562 30.265625 22.421875 30.828125 20.617188 C 31.386719 18.816406 32.523438 17.242188 34.058594 16.121094 C 35.597656 15 37.457031 14.398438 39.367188 14.398438 Z M 39.367188 14.398438 "/>
<path style=" stroke:none;fill-rule:nonzero;fill:rgb(99.215686%,78.039216%,35.686275%);fill-opacity:1;" d="M 44.359375 30.453125 L 44.394531 30.5 C 42.910156 31.5 41.160156 32.03125 39.367188 32.027344 C 39.007812 32.027344 38.644531 32.003906 38.285156 31.964844 L 35.15625 33.898438 L 35.15625 30.988281 C 34.875 30.839844 34.605469 30.679688 34.339844 30.5 L 34.375 30.457031 L 34.375 27.449219 C 34.339844 27.125 34.378906 26.800781 34.480469 26.492188 C 34.582031 26.183594 34.75 25.898438 34.96875 25.65625 C 35.191406 25.417969 35.460938 25.226562 35.761719 25.09375 C 36.0625 24.960938 36.386719 24.894531 36.714844 24.894531 L 37.359375 24.894531 L 37.734375 25.726562 C 37.867188 26.042969 38.089844 26.316406 38.378906 26.507812 C 38.667969 26.703125 39.007812 26.8125 39.355469 26.816406 C 39.707031 26.824219 40.050781 26.730469 40.34375 26.550781 C 40.640625 26.367188 40.878906 26.105469 41.023438 25.792969 L 41.445312 24.894531 L 42.019531 24.894531 C 42.347656 24.894531 42.671875 24.960938 42.972656 25.09375 C 43.273438 25.226562 43.542969 25.417969 43.765625 25.65625 C 43.984375 25.898438 44.152344 26.183594 44.253906 26.492188 C 44.355469 26.800781 44.394531 27.125 44.359375 27.449219 Z M 41.554688 20.65625 L 41.554688 21.679688 C 41.554688 22.273438 41.3125 22.84375 40.890625 23.261719 C 40.464844 23.679688 39.886719 23.914062 39.289062 23.914062 C 38.6875 23.914062 38.109375 23.679688 37.6875 23.261719 C 37.261719 22.84375 37.023438 22.273438 37.023438 21.679688 C 37.023438 21.679688 37.023438 21.292969 37.027344 20.863281 C 37.726562 20.820312 38.367188 20.320312 38.496094 19.71875 C 39.152344 20.160156 40.140625 20.589844 41.554688 20.65625 Z M 41.554688 20.65625 "/>
<path style=" stroke:none;fill-rule:nonzero;fill:rgb(99.215686%,78.039216%,35.686275%);fill-opacity:1;" d="M 38.496094 19.71875 C 38.082031 19.449219 37.722656 19.101562 37.441406 18.699219 C 37.703125 18.335938 38.066406 18.058594 38.492188 17.902344 C 38.898438 17.75 39.339844 17.71875 39.765625 17.808594 C 40.191406 17.898438 40.582031 18.109375 40.890625 18.410156 C 41.101562 18.617188 41.269531 18.867188 41.382812 19.136719 C 41.496094 19.40625 41.554688 19.699219 41.554688 19.992188 L 41.554688 20.65625 C 40.140625 20.589844 39.152344 20.160156 38.496094 19.71875 Z M 38.496094 19.71875 "/>
<path style=" stroke:none;fill-rule:nonzero;fill:rgb(92.941176%,40%,29.803922%);fill-opacity:1;" d="M 36.207031 37.007812 L 31.242188 47.78125 L 14.359375 47.78125 L 19.324219 37.007812 Z M 36.207031 37.007812 "/>
<path style=" stroke:none;fill-rule:nonzero;fill:rgb(99.215686%,78.039216%,35.686275%);fill-opacity:1;" d="M 20.839844 6.597656 L 20.851562 7.675781 C 20.859375 8.316406 21.121094 8.929688 21.582031 9.378906 C 22.046875 9.828125 22.667969 10.082031 23.316406 10.082031 L 23.34375 10.082031 C 23.667969 10.078125 23.988281 10.011719 24.285156 9.886719 C 24.582031 9.761719 24.855469 9.582031 25.082031 9.351562 C 25.308594 9.125 25.484375 8.855469 25.605469 8.558594 C 25.726562 8.261719 25.789062 7.945312 25.785156 7.625 L 25.765625 5.519531 L 25.761719 5.351562 C 25.757812 4.875 25.558594 4.421875 25.214844 4.085938 C 24.867188 3.753906 24.402344 3.566406 23.917969 3.570312 L 21.285156 3.597656 C 21.257812 3.597656 21.230469 3.601562 21.203125 3.609375 C 21.09375 3.625 20.996094 3.683594 20.921875 3.769531 C 20.851562 3.851562 20.8125 3.960938 20.816406 4.070312 L 20.835938 6.070312 Z M 23.480469 0.683594 C 25.34375 0.683594 27.164062 1.261719 28.679688 2.332031 C 30.195312 3.402344 31.335938 4.914062 31.9375 6.65625 C 32.539062 8.394531 32.574219 10.277344 32.035156 12.039062 C 31.5 13.800781 30.414062 15.351562 28.941406 16.476562 L 28.90625 13.875 C 28.9375 13.523438 28.894531 13.167969 28.78125 12.832031 C 28.664062 12.5 28.480469 12.191406 28.238281 11.929688 C 27.996094 11.671875 27.699219 11.464844 27.371094 11.324219 C 27.042969 11.183594 26.6875 11.113281 26.328125 11.117188 L 25.707031 11.125 L 24.753906 14.5625 L 23.714844 12.773438 L 23.125 12.777344 L 22.199219 14.589844 L 21.253906 11.113281 L 20.554688 11.175781 C 20.195312 11.179688 19.84375 11.257812 19.515625 11.402344 C 19.191406 11.550781 18.898438 11.761719 18.660156 12.027344 C 18.425781 12.292969 18.246094 12.601562 18.136719 12.9375 C 18.027344 13.277344 17.992188 13.632812 18.03125 13.984375 L 18.066406 16.515625 C 16.578125 15.398438 15.484375 13.847656 14.933594 12.085938 C 14.386719 10.320312 14.414062 8.433594 15.011719 6.683594 C 15.609375 4.933594 16.746094 3.417969 18.265625 2.339844 C 19.785156 1.265625 21.609375 0.683594 23.480469 0.683594 Z M 23.480469 0.683594 "/>
<path style=" stroke:none;fill-rule:nonzero;fill:rgb(99.215686%,78.039216%,35.686275%);fill-opacity:1;" d="M 22.195312 14.589844 L 23.125 12.777344 L 23.710938 12.773438 L 24.753906 14.5625 L 25.707031 11.125 L 26.328125 11.117188 C 26.6875 11.113281 27.039062 11.183594 27.371094 11.324219 C 27.699219 11.464844 27.992188 11.671875 28.238281 11.929688 C 28.480469 12.191406 28.664062 12.5 28.78125 12.832031 C 28.894531 13.167969 28.9375 13.523438 28.90625 13.875 L 28.9375 16.476562 C 27.375 17.671875 25.453125 18.316406 23.476562 18.316406 C 23.117188 18.316406 22.757812 18.292969 22.398438 18.25 L 19.265625 20.1875 L 19.265625 17.277344 C 18.847656 17.054688 18.445312 16.800781 18.066406 16.515625 L 18.03125 13.984375 C 17.992188 13.632812 18.027344 13.277344 18.136719 12.9375 C 18.242188 12.601562 18.421875 12.292969 18.660156 12.027344 C 18.898438 11.761719 19.1875 11.550781 19.515625 11.402344 C 19.839844 11.257812 20.195312 11.179688 20.554688 11.175781 L 21.253906 11.113281 Z M 25.785156 7.625 C 25.785156 7.945312 25.726562 8.261719 25.605469 8.558594 C 25.484375 8.855469 25.304688 9.125 25.078125 9.351562 C 24.851562 9.582031 24.582031 9.761719 24.285156 9.886719 C 23.988281 10.011719 23.667969 10.078125 23.34375 10.082031 L 23.316406 10.082031 C 22.667969 10.082031 22.042969 9.828125 21.582031 9.378906 C 21.121094 8.929688 20.859375 8.316406 20.851562 7.675781 L 20.839844 6.597656 C 20.945312 6.371094 21.453125 5.421875 22.589844 5.238281 C 23.316406 5.738281 24.308594 6.054688 25.503906 5.523438 L 25.761719 5.519531 Z M 25.785156 7.625 "/>
<path style=" stroke:none;fill-rule:nonzero;fill:rgb(99.215686%,78.039216%,35.686275%);fill-opacity:1;" d="M 22.589844 5.238281 C 22.042969 4.847656 21.582031 4.355469 21.230469 3.789062 L 21.203125 3.609375 C 21.226562 3.601562 21.253906 3.597656 21.28125 3.597656 L 23.917969 3.570312 C 24.402344 3.566406 24.867188 3.753906 25.210938 4.085938 C 25.558594 4.421875 25.753906 4.875 25.761719 5.351562 L 25.761719 5.519531 L 25.503906 5.523438 C 24.308594 6.054688 23.316406 5.738281 22.589844 5.238281 Z M 9.054688 39.433594 L 10.953125 35.824219 L 12.128906 35.824219 L 14.179688 39.4375 L 16.15625 32.5625 L 17.402344 32.5625 C 18.65625 32.5625 19.867188 33.015625 20.804688 33.832031 C 21.742188 34.648438 22.347656 35.777344 22.503906 37.003906 L 22.503906 37.007812 L 19.324219 37.007812 L 14.359375 47.78125 L 0.71875 47.78125 L 0.71875 38.136719 C 0.648438 37.433594 0.726562 36.722656 0.949219 36.050781 C 1.171875 35.375 1.539062 34.757812 2.019531 34.230469 C 2.5 33.707031 3.089844 33.285156 3.746094 33 C 4.402344 32.710938 5.113281 32.5625 5.832031 32.5625 L 7.238281 32.449219 Z M 9.054688 39.433594 "/>
<path style=" stroke:none;fill-rule:nonzero;fill:rgb(99.215686%,78.039216%,35.686275%);fill-opacity:1;" d="M 22.589844 5.238281 C 21.453125 5.421875 20.949219 6.371094 20.84375 6.597656 L 20.835938 6.070312 L 20.816406 4.070312 C 20.816406 3.960938 20.851562 3.851562 20.925781 3.769531 C 20.996094 3.683594 21.09375 3.625 21.203125 3.609375 L 21.234375 3.789062 C 21.582031 4.355469 22.042969 4.847656 22.589844 5.238281 Z M 16.390625 23.601562 L 16.390625 25.550781 C 16.390625 26.84375 15.867188 28.085938 14.941406 29 C 14.015625 29.914062 12.757812 30.425781 11.445312 30.425781 C 10.132812 30.425781 8.878906 29.914062 7.949219 29 C 7.023438 28.085938 6.503906 26.84375 6.503906 25.550781 L 6.503906 23.601562 C 6.503906 22.308594 7.023438 21.070312 7.949219 20.152344 C 8.878906 19.238281 10.132812 18.726562 11.445312 18.726562 C 12.757812 18.726562 14.015625 19.238281 14.941406 20.152344 C 15.867188 21.070312 16.390625 22.308594 16.390625 23.601562 Z M 16.390625 23.601562 "/>
<path style=" stroke:none;fill-rule:nonzero;fill:rgb(99.215686%,78.039216%,35.686275%);fill-opacity:1;" d="M 13.121094 32.710938 L 12.128906 35.824219 L 10.953125 35.824219 L 9.964844 32.710938 Z M 13.121094 32.710938 "/>
<path style=" stroke:none;fill-rule:nonzero;fill:rgb(0%,0%,0%);fill-opacity:1;" d="M 36.207031 36.324219 L 23.085938 36.324219 C 22.785156 35.058594 22.0625 33.929688 21.03125 33.125 C 20 32.316406 18.722656 31.878906 17.40625 31.878906 L 16.15625 31.878906 C 16.007812 31.878906 15.859375 31.925781 15.738281 32.015625 C 15.617188 32.105469 15.53125 32.230469 15.488281 32.375 L 13.96875 37.660156 L 12.882812 35.75 L 13.785156 32.917969 C 13.816406 32.816406 13.824219 32.707031 13.804688 32.601562 C 13.789062 32.492188 13.746094 32.394531 13.679688 32.304688 C 13.617188 32.21875 13.53125 32.148438 13.433594 32.101562 C 13.335938 32.050781 13.230469 32.027344 13.121094 32.027344 L 9.964844 32.027344 C 9.855469 32.027344 9.746094 32.050781 9.652344 32.101562 C 9.554688 32.148438 9.46875 32.21875 9.40625 32.304688 C 9.339844 32.394531 9.296875 32.492188 9.277344 32.601562 C 9.261719 32.707031 9.269531 32.816406 9.300781 32.917969 L 10.203125 35.761719 L 9.277344 37.523438 L 7.910156 32.277344 C 7.871094 32.121094 7.777344 31.984375 7.640625 31.890625 C 7.507812 31.796875 7.34375 31.753906 7.183594 31.765625 L 5.800781 31.878906 C 4.992188 31.882812 4.191406 32.050781 3.453125 32.378906 C 2.714844 32.703125 2.050781 33.175781 1.507812 33.769531 C 0.964844 34.363281 0.550781 35.058594 0.296875 35.816406 C 0.0429688 36.574219 -0.0507812 37.378906 0.0273438 38.171875 L 0.0273438 47.78125 C 0.0273438 47.964844 0.0976562 48.136719 0.230469 48.265625 C 0.359375 48.394531 0.535156 48.46875 0.722656 48.46875 L 31.242188 48.46875 C 31.375 48.46875 31.503906 48.429688 31.617188 48.359375 C 31.730469 48.289062 31.820312 48.1875 31.875 48.066406 L 36.839844 37.292969 C 36.886719 37.1875 36.910156 37.074219 36.898438 36.957031 C 36.890625 36.84375 36.855469 36.734375 36.792969 36.636719 C 36.726562 36.539062 36.640625 36.460938 36.539062 36.40625 C 36.4375 36.351562 36.324219 36.324219 36.207031 36.324219 Z M 12.175781 33.398438 L 11.621094 35.140625 L 11.464844 35.140625 L 10.910156 33.398438 Z M 1.414062 38.070312 C 1.351562 37.460938 1.417969 36.84375 1.613281 36.261719 C 1.804688 35.679688 2.121094 35.144531 2.535156 34.691406 C 2.953125 34.238281 3.460938 33.875 4.027344 33.625 C 4.597656 33.375 5.210938 33.25 5.832031 33.25 C 5.851562 33.25 5.871094 33.246094 5.886719 33.246094 L 6.710938 33.179688 L 8.382812 39.605469 C 8.382812 39.609375 8.382812 39.609375 8.386719 39.613281 C 8.390625 39.632812 8.394531 39.648438 8.402344 39.664062 C 8.402344 39.671875 8.40625 39.675781 8.40625 39.679688 C 8.414062 39.695312 8.421875 39.710938 8.429688 39.726562 C 8.429688 39.734375 8.433594 39.738281 8.433594 39.742188 C 8.441406 39.757812 8.449219 39.773438 8.460938 39.785156 L 8.46875 39.800781 C 8.476562 39.816406 8.488281 39.828125 8.496094 39.839844 C 8.5 39.847656 8.503906 39.851562 8.507812 39.855469 C 8.519531 39.867188 8.527344 39.882812 8.539062 39.894531 C 8.542969 39.898438 8.546875 39.902344 8.550781 39.90625 C 8.5625 39.917969 8.574219 39.929688 8.585938 39.941406 C 8.589844 39.945312 8.59375 39.949219 8.597656 39.953125 C 8.613281 39.960938 8.625 39.972656 8.640625 39.984375 L 8.648438 39.992188 C 8.664062 40.003906 8.679688 40.011719 8.695312 40.019531 L 8.707031 40.027344 C 8.722656 40.035156 8.738281 40.042969 8.753906 40.050781 L 8.765625 40.058594 C 8.78125 40.066406 8.796875 40.070312 8.8125 40.078125 L 8.828125 40.082031 C 8.84375 40.085938 8.859375 40.09375 8.875 40.097656 C 8.882812 40.097656 8.886719 40.101562 8.894531 40.101562 C 8.910156 40.105469 8.925781 40.109375 8.9375 40.109375 C 8.949219 40.113281 8.957031 40.113281 8.964844 40.113281 C 8.976562 40.117188 8.992188 40.117188 9.003906 40.117188 C 9.015625 40.117188 9.023438 40.121094 9.035156 40.121094 C 9.039062 40.121094 9.046875 40.121094 9.054688 40.121094 C 9.058594 40.121094 9.066406 40.121094 9.070312 40.121094 C 9.09375 40.121094 9.113281 40.117188 9.136719 40.113281 C 9.152344 40.113281 9.164062 40.109375 9.179688 40.109375 C 9.195312 40.105469 9.210938 40.101562 9.226562 40.097656 C 9.230469 40.097656 9.234375 40.097656 9.234375 40.097656 C 9.25 40.09375 9.261719 40.089844 9.277344 40.082031 C 9.289062 40.078125 9.304688 40.074219 9.320312 40.066406 C 9.332031 40.0625 9.34375 40.058594 9.351562 40.054688 C 9.378906 40.042969 9.398438 40.03125 9.421875 40.015625 C 9.429688 40.011719 9.433594 40.007812 9.441406 40.003906 C 9.460938 39.992188 9.476562 39.980469 9.492188 39.964844 C 9.5 39.960938 9.507812 39.953125 9.511719 39.949219 C 9.53125 39.933594 9.550781 39.914062 9.566406 39.898438 C 9.570312 39.894531 9.570312 39.894531 9.574219 39.890625 C 9.59375 39.871094 9.609375 39.847656 9.625 39.828125 C 9.628906 39.820312 9.632812 39.8125 9.640625 39.804688 C 9.652344 39.785156 9.660156 39.769531 9.671875 39.75 C 9.675781 39.746094 9.675781 39.742188 9.679688 39.734375 L 11.375 36.511719 L 11.722656 36.511719 L 13.574219 39.769531 C 13.632812 39.875 13.722656 39.964844 13.828125 40.027344 C 13.933594 40.089844 14.054688 40.121094 14.179688 40.121094 C 14.207031 40.121094 14.234375 40.121094 14.261719 40.117188 C 14.398438 40.101562 14.523438 40.046875 14.628906 39.957031 C 14.734375 39.871094 14.808594 39.753906 14.847656 39.621094 L 16.683594 33.246094 L 17.40625 33.246094 C 18.351562 33.246094 19.273438 33.546875 20.035156 34.097656 C 20.796875 34.652344 21.363281 35.429688 21.644531 36.320312 L 19.324219 36.320312 C 19.191406 36.320312 19.0625 36.359375 18.949219 36.429688 C 18.835938 36.503906 18.746094 36.605469 18.691406 36.722656 L 13.914062 47.097656 L 1.417969 47.097656 L 1.417969 38.136719 C 1.417969 38.117188 1.414062 38.09375 1.414062 38.070312 Z M 30.792969 47.097656 L 15.4375 47.097656 L 19.773438 37.695312 L 35.128906 37.695312 Z M 11.445312 31.113281 C 12.941406 31.113281 14.375 30.523438 15.429688 29.484375 C 16.488281 28.441406 17.082031 27.027344 17.082031 25.550781 L 17.082031 23.601562 C 17.082031 22.125 16.488281 20.710938 15.433594 19.667969 C 14.375 18.625 12.941406 18.039062 11.445312 18.039062 C 9.949219 18.039062 8.515625 18.625 7.457031 19.667969 C 6.402344 20.710938 5.804688 22.125 5.804688 23.601562 L 5.804688 25.550781 C 5.808594 27.027344 6.402344 28.441406 7.460938 29.484375 C 8.515625 30.523438 9.949219 31.113281 11.445312 31.113281 Z M 7.195312 23.601562 C 7.195312 22.492188 7.644531 21.425781 8.441406 20.640625 C 9.238281 19.851562 10.320312 19.410156 11.445312 19.410156 C 12.570312 19.410156 13.652344 19.851562 14.449219 20.640625 C 15.246094 21.425781 15.691406 22.492188 15.691406 23.601562 L 15.691406 25.550781 C 15.691406 26.664062 15.246094 27.730469 14.449219 28.515625 C 13.652344 29.300781 12.570312 29.742188 11.445312 29.742188 C 10.320312 29.742188 9.238281 29.300781 8.441406 28.515625 C 7.644531 27.730469 7.195312 26.664062 7.195312 25.550781 Z M 41.054688 17.648438 C 41.144531 17.378906 41.167969 17.089844 41.121094 16.808594 C 41.078125 16.53125 40.964844 16.261719 40.796875 16.03125 C 40.625 15.800781 40.402344 15.613281 40.148438 15.484375 C 39.890625 15.351562 39.605469 15.285156 39.316406 15.28125 C 39.027344 15.28125 38.742188 15.347656 38.484375 15.472656 C 38.226562 15.601562 38.003906 15.785156 37.832031 16.015625 C 37.660156 16.242188 37.542969 16.507812 37.496094 16.789062 C 37.445312 17.070312 37.464844 17.359375 37.550781 17.628906 C 37.210938 17.871094 36.929688 18.179688 36.722656 18.535156 C 36.515625 18.890625 36.386719 19.289062 36.34375 19.695312 C 36.339844 19.734375 36.335938 19.777344 36.332031 20.859375 C 36.328125 21.289062 36.328125 21.679688 36.328125 21.679688 C 36.328125 22.457031 36.640625 23.199219 37.195312 23.746094 C 37.75 24.292969 38.503906 24.601562 39.289062 24.601562 C 40.074219 24.601562 40.824219 24.292969 41.382812 23.746094 C 41.9375 23.199219 42.25 22.457031 42.25 21.679688 L 42.25 19.992188 C 42.25 19.609375 42.171875 19.226562 42.023438 18.875 C 41.875 18.519531 41.65625 18.199219 41.382812 17.925781 C 41.28125 17.828125 41.171875 17.734375 41.054688 17.648438 Z M 38.890625 19.152344 C 38.703125 19.03125 38.53125 18.890625 38.371094 18.734375 C 38.585938 18.582031 38.832031 18.488281 39.089844 18.453125 C 39.351562 18.421875 39.617188 18.453125 39.859375 18.550781 C 40.136719 18.65625 40.378906 18.839844 40.554688 19.078125 C 40.734375 19.316406 40.835938 19.601562 40.855469 19.894531 C 40.152344 19.792969 39.480469 19.542969 38.890625 19.152344 Z M 39.308594 16.65625 C 39.425781 16.65625 39.539062 16.703125 39.625 16.785156 C 39.707031 16.867188 39.753906 16.980469 39.753906 17.097656 C 39.753906 17.101562 39.753906 17.105469 39.753906 17.109375 C 39.457031 17.0625 39.15625 17.058594 38.859375 17.101562 C 38.859375 17.101562 38.859375 17.097656 38.859375 17.097656 C 38.859375 16.980469 38.90625 16.867188 38.992188 16.785156 C 39.074219 16.703125 39.1875 16.65625 39.308594 16.65625 Z M 39.289062 23.230469 C 38.871094 23.230469 38.472656 23.066406 38.179688 22.777344 C 37.882812 22.488281 37.71875 22.09375 37.71875 21.683594 C 37.71875 21.683594 37.71875 21.574219 37.71875 21.414062 C 38.132812 21.265625 38.5 21.011719 38.777344 20.671875 C 39.429688 20.988281 40.132812 21.195312 40.859375 21.28125 L 40.859375 21.679688 C 40.859375 22.089844 40.691406 22.484375 40.398438 22.777344 C 40.101562 23.066406 39.703125 23.230469 39.289062 23.230469 Z M 39.289062 23.230469 "/>
<path style=" stroke:none;fill-rule:nonzero;fill:rgb(0%,0%,0%);fill-opacity:1;" d="M 39.367188 13.710938 C 37.308594 13.710938 35.300781 14.363281 33.644531 15.570312 C 31.988281 16.777344 30.765625 18.476562 30.160156 20.417969 C 29.554688 22.359375 29.597656 24.441406 30.277344 26.359375 C 30.960938 28.273438 32.246094 29.925781 33.949219 31.070312 C 34.117188 31.179688 34.285156 31.289062 34.460938 31.390625 L 34.460938 33.898438 C 34.460938 34.023438 34.496094 34.140625 34.558594 34.246094 C 34.621094 34.351562 34.710938 34.441406 34.820312 34.5 C 34.929688 34.558594 35.050781 34.589844 35.175781 34.585938 C 35.300781 34.582031 35.421875 34.546875 35.527344 34.480469 L 38.453125 32.671875 C 38.753906 32.699219 39.0625 32.710938 39.367188 32.710938 C 41.921875 32.710938 44.371094 31.710938 46.179688 29.929688 C 47.984375 28.148438 49 25.730469 49 23.210938 C 49 20.691406 47.984375 18.277344 46.179688 16.492188 C 44.371094 14.710938 41.921875 13.710938 39.367188 13.710938 Z M 38.371094 31.28125 C 38.210938 31.265625 38.050781 31.300781 37.917969 31.382812 L 35.851562 32.660156 L 35.851562 30.988281 C 35.851562 30.867188 35.816406 30.746094 35.753906 30.636719 C 35.6875 30.53125 35.597656 30.445312 35.484375 30.386719 C 35.34375 30.3125 35.207031 30.230469 35.070312 30.148438 L 35.070312 27.449219 C 35.070312 27.425781 35.066406 27.402344 35.066406 27.378906 C 35.042969 27.152344 35.066406 26.921875 35.140625 26.703125 C 35.210938 26.488281 35.332031 26.289062 35.484375 26.117188 C 35.640625 25.949219 35.832031 25.8125 36.042969 25.71875 C 36.253906 25.628906 36.484375 25.578125 36.714844 25.578125 L 36.90625 25.578125 L 37.09375 25.996094 C 37.28125 26.4375 37.59375 26.8125 37.992188 27.078125 C 38.394531 27.347656 38.863281 27.496094 39.347656 27.503906 C 39.828125 27.511719 40.304688 27.382812 40.714844 27.128906 C 41.125 26.878906 41.453125 26.511719 41.65625 26.082031 L 41.890625 25.578125 L 42.019531 25.578125 C 42.25 25.578125 42.480469 25.628906 42.691406 25.71875 C 42.902344 25.8125 43.09375 25.949219 43.25 26.117188 C 43.402344 26.289062 43.523438 26.488281 43.59375 26.707031 C 43.667969 26.921875 43.691406 27.152344 43.667969 27.378906 C 43.667969 27.402344 43.664062 27.425781 43.664062 27.449219 L 43.664062 30.148438 C 42.371094 30.929688 40.882812 31.34375 39.367188 31.339844 C 39.035156 31.339844 38.699219 31.320312 38.371094 31.28125 Z M 45.054688 29.09375 L 45.054688 27.480469 C 45.09375 27.066406 45.042969 26.644531 44.90625 26.25 C 44.769531 25.855469 44.554688 25.492188 44.265625 25.183594 C 43.980469 24.878906 43.632812 24.632812 43.246094 24.464844 C 42.859375 24.296875 42.441406 24.207031 42.019531 24.207031 L 41.445312 24.207031 C 41.3125 24.207031 41.183594 24.246094 41.074219 24.316406 C 40.960938 24.386719 40.871094 24.488281 40.816406 24.605469 L 40.394531 25.5 C 40.304688 25.691406 40.164062 25.851562 39.984375 25.960938 C 39.851562 26.046875 39.695312 26.101562 39.539062 26.121094 C 39.378906 26.144531 39.214844 26.128906 39.0625 26.082031 C 38.910156 26.035156 38.765625 25.953125 38.648438 25.847656 C 38.53125 25.738281 38.4375 25.609375 38.375 25.460938 C 38.371094 25.457031 38.371094 25.453125 38.367188 25.449219 L 37.996094 24.617188 C 37.941406 24.496094 37.851562 24.390625 37.738281 24.320312 C 37.625 24.246094 37.496094 24.207031 37.359375 24.207031 L 36.714844 24.207031 C 36.292969 24.207031 35.875 24.292969 35.488281 24.460938 C 35.101562 24.632812 34.753906 24.875 34.46875 25.183594 C 34.179688 25.492188 33.964844 25.855469 33.828125 26.25 C 33.691406 26.644531 33.640625 27.0625 33.679688 27.480469 L 33.679688 29.09375 C 32.488281 27.972656 31.664062 26.527344 31.3125 24.9375 C 30.964844 23.351562 31.101562 21.699219 31.714844 20.191406 C 32.328125 18.683594 33.382812 17.390625 34.746094 16.480469 C 36.113281 15.570312 37.71875 15.082031 39.367188 15.082031 C 41.015625 15.082031 42.625 15.570312 43.988281 16.480469 C 45.351562 17.390625 46.40625 18.683594 47.019531 20.191406 C 47.632812 21.699219 47.769531 23.351562 47.421875 24.9375 C 47.070312 26.527344 46.246094 27.972656 45.054688 29.09375 Z M 45.054688 29.09375 "/>
<path style=" stroke:none;fill-rule:nonzero;fill:rgb(0%,0%,0%);fill-opacity:1;" d="M 17.644531 17.0625 C 17.941406 17.285156 18.25 17.488281 18.570312 17.679688 L 18.570312 20.1875 C 18.570312 20.308594 18.605469 20.429688 18.667969 20.535156 C 18.730469 20.640625 18.820312 20.726562 18.929688 20.789062 C 19.039062 20.847656 19.160156 20.875 19.285156 20.871094 C 19.410156 20.871094 19.53125 20.832031 19.636719 20.769531 L 22.5625 18.957031 C 22.867188 18.984375 23.171875 19 23.476562 19 C 26.03125 19 28.480469 18 30.289062 16.21875 C 32.09375 14.4375 33.109375 12.019531 33.109375 9.5 C 33.109375 7.882812 32.691406 6.292969 31.894531 4.878906 C 31.097656 3.46875 29.949219 2.28125 28.554688 1.425781 C 27.164062 0.574219 25.574219 0.0859375 23.933594 0.0117188 C 22.296875 -0.0664062 20.667969 0.269531 19.199219 0.988281 C 17.730469 1.707031 16.472656 2.78125 15.542969 4.113281 C 14.613281 5.445312 14.042969 6.988281 13.886719 8.597656 C 13.734375 10.207031 13.996094 11.828125 14.652344 13.308594 C 15.3125 14.792969 16.339844 16.082031 17.644531 17.0625 Z M 22.480469 17.570312 C 22.324219 17.550781 22.164062 17.585938 22.027344 17.671875 L 19.960938 18.949219 L 19.960938 17.277344 C 19.960938 17.152344 19.929688 17.03125 19.863281 16.925781 C 19.800781 16.820312 19.707031 16.730469 19.59375 16.671875 C 19.308594 16.519531 19.027344 16.351562 18.761719 16.167969 L 18.726562 13.996094 L 18.726562 13.972656 C 18.726562 13.949219 18.726562 13.929688 18.722656 13.90625 C 18.695312 13.652344 18.71875 13.390625 18.800781 13.144531 C 18.878906 12.902344 19.007812 12.675781 19.183594 12.480469 C 19.355469 12.289062 19.566406 12.132812 19.804688 12.027344 C 20.042969 11.921875 20.300781 11.863281 20.5625 11.859375 C 20.582031 11.859375 20.597656 11.859375 20.617188 11.859375 L 20.734375 11.847656 L 21.527344 14.765625 L 22.195312 14.589844 L 22.199219 14.589844 L 22.816406 14.898438 L 23.441406 13.683594 L 24.152344 14.902344 C 24.21875 15.023438 24.324219 15.117188 24.445312 15.175781 C 24.570312 15.238281 24.707031 15.261719 24.84375 15.242188 C 24.980469 15.226562 25.105469 15.167969 25.210938 15.082031 C 25.316406 14.992188 25.390625 14.875 25.425781 14.742188 L 26.238281 11.804688 L 26.335938 11.804688 C 26.597656 11.800781 26.855469 11.851562 27.09375 11.957031 C 27.335938 12.058594 27.550781 12.207031 27.726562 12.398438 C 27.902344 12.585938 28.039062 12.808594 28.121094 13.054688 C 28.207031 13.296875 28.238281 13.554688 28.214844 13.8125 C 28.210938 13.835938 28.210938 13.859375 28.210938 13.882812 L 28.238281 16.136719 C 26.851562 17.113281 25.183594 17.636719 23.480469 17.628906 C 23.144531 17.628906 22.8125 17.609375 22.480469 17.570312 Z M 23.476562 1.371094 C 25.070312 1.371094 26.628906 1.824219 27.964844 2.679688 C 29.300781 3.535156 30.355469 4.753906 31.003906 6.1875 C 31.652344 7.621094 31.867188 9.210938 31.621094 10.761719 C 31.375 12.3125 30.675781 13.757812 29.613281 14.929688 L 29.601562 13.898438 C 29.636719 13.457031 29.578125 13.011719 29.429688 12.59375 C 29.285156 12.175781 29.050781 11.789062 28.746094 11.464844 C 28.441406 11.140625 28.070312 10.878906 27.660156 10.703125 C 27.25 10.523438 26.804688 10.433594 26.355469 10.433594 C 26.34375 10.433594 26.332031 10.433594 26.320312 10.433594 L 25.699219 10.4375 C 25.546875 10.4375 25.402344 10.488281 25.28125 10.582031 C 25.160156 10.671875 25.074219 10.800781 25.035156 10.941406 L 24.523438 12.789062 L 24.316406 12.429688 C 24.253906 12.324219 24.167969 12.238281 24.0625 12.179688 C 23.953125 12.117188 23.835938 12.085938 23.710938 12.085938 L 23.707031 12.085938 L 23.117188 12.09375 C 22.992188 12.09375 22.867188 12.128906 22.757812 12.195312 C 22.648438 12.261719 22.5625 12.355469 22.503906 12.46875 L 22.398438 12.675781 L 21.925781 10.933594 C 21.882812 10.777344 21.785156 10.640625 21.652344 10.550781 C 21.519531 10.457031 21.355469 10.414062 21.191406 10.429688 L 20.515625 10.492188 C 20.066406 10.5 19.625 10.597656 19.214844 10.785156 C 18.804688 10.96875 18.441406 11.238281 18.144531 11.570312 C 17.84375 11.902344 17.617188 12.289062 17.480469 12.714844 C 17.339844 13.136719 17.292969 13.582031 17.339844 14.023438 L 17.351562 14.9375 C 16.285156 13.769531 15.585938 12.324219 15.335938 10.769531 C 15.089844 9.21875 15.300781 7.628906 15.949219 6.191406 C 16.597656 4.757812 17.652344 3.539062 18.988281 2.683594 C 20.324219 1.828125 21.882812 1.371094 23.476562 1.371094 Z M 23.476562 1.371094 "/>
<path style=" stroke:none;fill-rule:nonzero;fill:rgb(0%,0%,0%);fill-opacity:1;" d="M 23.320312 10.769531 L 23.351562 10.769531 C 24.191406 10.757812 24.992188 10.421875 25.578125 9.832031 C 26.164062 9.242188 26.488281 8.445312 26.480469 7.617188 L 26.457031 5.34375 C 26.449219 4.6875 26.175781 4.058594 25.699219 3.597656 C 25.222656 3.136719 24.582031 2.882812 23.914062 2.886719 L 21.285156 2.914062 C 21.210938 2.914062 21.136719 2.921875 21.066406 2.9375 C 20.796875 2.984375 20.554688 3.128906 20.382812 3.335938 C 20.210938 3.546875 20.117188 3.808594 20.121094 4.078125 L 20.160156 7.683594 C 20.167969 8.503906 20.507812 9.285156 21.097656 9.863281 C 21.691406 10.441406 22.488281 10.765625 23.320312 10.769531 Z M 23.34375 9.398438 L 23.320312 9.398438 C 22.851562 9.394531 22.40625 9.214844 22.074219 8.890625 C 21.742188 8.566406 21.554688 8.128906 21.546875 7.667969 L 21.539062 6.761719 C 21.742188 6.398438 22.074219 6.117188 22.46875 5.972656 C 23.011719 6.300781 23.636719 6.480469 24.277344 6.484375 C 24.546875 6.484375 24.816406 6.453125 25.078125 6.390625 L 25.089844 7.632812 C 25.09375 8.09375 24.914062 8.539062 24.585938 8.871094 C 24.261719 9.199219 23.8125 9.390625 23.34375 9.398438 Z M 23.925781 4.257812 L 23.9375 4.257812 C 24.167969 4.257812 24.394531 4.328125 24.582031 4.457031 C 24.773438 4.589844 24.914062 4.773438 24.996094 4.984375 C 24.300781 5.226562 23.640625 5.125 22.988281 4.675781 C 22.816406 4.554688 22.652344 4.421875 22.5 4.273438 Z M 23.925781 4.257812 "/>
</g>
</svg>
