<svg width="19" height="19" viewBox="0 0 19 19" fill="none" xmlns="http://www.w3.org/2000/svg">
<path d="M8.8255 12.6255C8.78465 12.6706 8.74658 12.7182 8.7115 12.768C8.67555 12.821 8.6468 12.8785 8.626 12.939C8.59861 12.9928 8.5794 13.0505 8.569 13.11C8.56434 13.1732 8.56434 13.2367 8.569 13.3C8.56579 13.4246 8.59182 13.5483 8.645 13.661C8.68767 13.7789 8.75574 13.886 8.84439 13.9746C8.93305 14.0633 9.04011 14.1313 9.158 14.174C9.27172 14.2243 9.39468 14.2502 9.519 14.2502C9.64333 14.2502 9.76629 14.2243 9.88 14.174C9.99789 14.1313 10.105 14.0633 10.1936 13.9746C10.2823 13.886 10.3503 13.7789 10.393 13.661C10.4352 13.5455 10.4545 13.4229 10.45 13.3C10.4507 13.175 10.4268 13.051 10.3795 12.9353C10.3322 12.8195 10.2625 12.7143 10.1745 12.6255C10.0862 12.5365 9.98112 12.4658 9.86535 12.4176C9.74958 12.3693 9.62541 12.3445 9.5 12.3445C9.37459 12.3445 9.25042 12.3693 9.13465 12.4176C9.01889 12.4658 8.91382 12.5365 8.8255 12.6255ZM9.5 0C7.62108 0 5.78435 0.557165 4.22209 1.60104C2.65982 2.64491 1.44218 4.12861 0.723149 5.86451C0.0041162 7.6004 -0.184015 9.51054 0.182544 11.3534C0.549104 13.1962 1.45389 14.8889 2.78249 16.2175C4.11109 17.5461 5.80383 18.4509 7.64665 18.8175C9.48946 19.184 11.3996 18.9959 13.1355 18.2769C14.8714 17.5578 16.3551 16.3402 17.399 14.7779C18.4428 13.2156 19 11.3789 19 9.5C19 8.25244 18.7543 7.0171 18.2769 5.86451C17.7994 4.71191 17.0997 3.66464 16.2175 2.78248C15.3354 1.90033 14.2881 1.20056 13.1355 0.723144C11.9829 0.245725 10.7476 0 9.5 0ZM9.5 17.1C7.99686 17.1 6.52748 16.6543 5.27767 15.8192C4.02786 14.9841 3.05375 13.7971 2.47852 12.4084C1.90329 11.0197 1.75279 9.49157 2.04604 8.01731C2.33928 6.54306 3.06311 5.18887 4.12599 4.12599C5.18887 3.06311 6.54306 2.33928 8.01732 2.04603C9.49157 1.75278 11.0197 1.90329 12.4084 2.47852C13.7971 3.05374 14.9841 4.02785 15.8192 5.27766C16.6543 6.52748 17.1 7.99686 17.1 9.5C17.1 11.5156 16.2993 13.4487 14.874 14.874C13.4487 16.2993 11.5156 17.1 9.5 17.1ZM9.5 4.75C8.99941 4.74968 8.50757 4.88121 8.07397 5.13137C7.64036 5.38152 7.2803 5.74148 7.03 6.175C6.96127 6.28313 6.91511 6.40404 6.89432 6.53047C6.87352 6.65689 6.87852 6.78622 6.909 6.91067C6.93948 7.03511 6.99482 7.15211 7.07169 7.25461C7.14856 7.35712 7.24537 7.44301 7.3563 7.50713C7.46723 7.57125 7.58998 7.61227 7.71717 7.62772C7.84436 7.64317 7.97336 7.63273 8.09641 7.59703C8.21947 7.56133 8.33402 7.50111 8.4332 7.41999C8.53237 7.33887 8.61411 7.23853 8.6735 7.125C8.7572 6.98002 8.87772 6.85974 9.02286 6.77633C9.168 6.69291 9.3326 6.64933 9.5 6.65C9.75196 6.65 9.99359 6.75009 10.1718 6.92825C10.3499 7.10641 10.45 7.34804 10.45 7.6C10.45 7.85195 10.3499 8.09359 10.1718 8.27175C9.99359 8.44991 9.75196 8.55 9.5 8.55C9.24805 8.55 9.00641 8.65009 8.82825 8.82825C8.65009 9.00641 8.55 9.24804 8.55 9.5V10.45C8.55 10.702 8.65009 10.9436 8.82825 11.1217C9.00641 11.2999 9.24805 11.4 9.5 11.4C9.75196 11.4 9.99359 11.2999 10.1718 11.1217C10.3499 10.9436 10.45 10.702 10.45 10.45V10.279C11.0783 10.051 11.6065 9.60946 11.9422 9.03152C12.278 8.45358 12.3999 7.77603 12.2867 7.11729C12.1735 6.45856 11.8324 5.86057 11.323 5.42784C10.8136 4.99511 10.1684 4.75518 9.5 4.75Z" fill="white"/>
</svg>
