<svg width="20" height="20" viewBox="0 0 20 20" fill="none" xmlns="http://www.w3.org/2000/svg">
<path d="M19.0788 10.0001H10.9288C10.8093 10.0001 10.691 9.97654 10.5805 9.93081C10.4701 9.88508 10.3698 9.81805 10.2853 9.73355C10.2008 9.64905 10.1338 9.54873 10.0881 9.43832C10.0423 9.32792 10.0188 9.20959 10.0188 9.09008V0.920082C10.0196 0.79037 9.99289 0.661963 9.94053 0.543285C9.88817 0.424607 9.81131 0.318343 9.71499 0.231465C9.61867 0.144587 9.50506 0.0790591 9.38163 0.0391821C9.2582 -0.000694927 9.12773 -0.0140199 8.99879 8.16868e-05C7.12154 0.199415 5.33905 0.926055 3.85746 2.09597C2.37587 3.26588 1.25571 4.83128 0.626493 6.61114C-0.00271845 8.391 -0.11527 10.3126 0.301855 12.1538C0.71898 13.9949 1.64874 15.6804 2.98362 17.0152C4.3185 18.3501 6.00397 19.2799 7.84511 19.697C9.68625 20.1141 11.6079 20.0016 13.3877 19.3724C15.1676 18.7432 16.733 17.623 17.9029 16.1414C19.0728 14.6598 19.7995 12.8773 19.9988 11.0001C20.0099 10.8727 19.9944 10.7444 19.9531 10.6234C19.9119 10.5024 19.8459 10.3913 19.7593 10.2972C19.6728 10.2031 19.5675 10.1281 19.4504 10.0769C19.3332 10.0258 19.2066 9.9996 19.0788 10.0001Z" fill="#FF7A00"/>
</svg>
