<svg width="76" height="66" viewBox="0 0 76 66" fill="none" xmlns="http://www.w3.org/2000/svg">
<path d="M75.625 30.3125H38V6.125C37.9986 4.6999 37.4318 3.33357 36.4241 2.32587C35.4164 1.31817 34.0501 0.751423 32.625 0.75H11.125C9.6999 0.751423 8.33357 1.31817 7.32587 2.32587C6.31817 3.33357 5.75142 4.6999 5.75 6.125V30.3125H0.375V35.6875H38V59.875C38.0014 61.3001 38.5682 62.6664 39.5759 63.6741C40.5836 64.6818 41.9499 65.2486 43.375 65.25H64.875C66.3001 65.2486 67.6664 64.6818 68.6741 63.6741C69.6818 62.6664 70.2486 61.3001 70.25 59.875V35.6875H75.625V30.3125ZM11.125 6.125H32.625V30.3125H11.125V6.125ZM64.875 59.875H43.375V35.6875H64.875V59.875Z" fill="#7F8B94"/>
</svg>
