<svg width="216" height="45" viewBox="0 0 216 45" fill="none" xmlns="http://www.w3.org/2000/svg">
<rect width="216" height="45" rx="3.20806" fill="#C3C4C6"/>
<path d="M75.684 28.14C74.6573 28.14 73.7753 27.9347 73.038 27.524C72.31 27.104 71.75 26.516 71.358 25.76C70.966 24.9947 70.77 24.094 70.77 23.058C70.77 22.022 70.966 21.126 71.358 20.37C71.75 19.614 72.31 19.0307 73.038 18.62C73.7753 18.2 74.6573 17.99 75.684 17.99C76.3747 17.99 76.9953 18.088 77.546 18.284C78.106 18.48 78.5867 18.7693 78.988 19.152L78.4 20.58C77.9613 20.2253 77.5367 19.9733 77.126 19.824C76.7247 19.6653 76.2627 19.586 75.74 19.586C74.7413 19.586 73.976 19.8893 73.444 20.496C72.9213 21.0933 72.66 21.9473 72.66 23.058C72.66 24.1687 72.9213 25.0273 73.444 25.634C73.976 26.2407 74.7413 26.544 75.74 26.544C76.2627 26.544 76.7247 26.4693 77.126 26.32C77.5367 26.1613 77.9613 25.9 78.4 25.536L78.988 26.964C78.5867 27.3373 78.106 27.6267 77.546 27.832C76.9953 28.0373 76.3747 28.14 75.684 28.14ZM80.522 28V22.736C80.522 22.4373 80.5127 22.134 80.494 21.826C80.4847 21.518 80.4613 21.2193 80.424 20.93H82.118L82.314 22.862H82.034C82.1273 22.3953 82.2813 22.008 82.496 21.7C82.72 21.392 82.9907 21.1633 83.308 21.014C83.6253 20.8647 83.9707 20.79 84.344 20.79C84.512 20.79 84.6473 20.7993 84.75 20.818C84.8527 20.8273 84.9553 20.8507 85.058 20.888L85.044 22.428C84.8667 22.3533 84.7127 22.3067 84.582 22.288C84.4607 22.2693 84.3067 22.26 84.12 22.26C83.7187 22.26 83.378 22.344 83.098 22.512C82.8273 22.68 82.622 22.9133 82.482 23.212C82.3513 23.5107 82.286 23.8513 82.286 24.234V28H80.522ZM89.3387 28.14C88.1534 28.14 87.2247 27.8133 86.5527 27.16C85.8807 26.5067 85.5447 25.6107 85.5447 24.472C85.5447 23.7347 85.6894 23.0907 85.9787 22.54C86.268 21.9893 86.6694 21.56 87.1827 21.252C87.7054 20.944 88.312 20.79 89.0027 20.79C89.684 20.79 90.2534 20.9347 90.7107 21.224C91.168 21.5133 91.5134 21.9193 91.7467 22.442C91.9894 22.9647 92.1107 23.576 92.1107 24.276V24.738H86.9587V23.814H90.8647L90.6267 24.01C90.6267 23.3567 90.4867 22.8573 90.2067 22.512C89.936 22.1667 89.5394 21.994 89.0167 21.994C88.438 21.994 87.99 22.1993 87.6727 22.61C87.3647 23.0207 87.2107 23.5947 87.2107 24.332V24.514C87.2107 25.2793 87.3974 25.8533 87.7707 26.236C88.1534 26.6093 88.69 26.796 89.3807 26.796C89.782 26.796 90.1554 26.7447 90.5007 26.642C90.8554 26.53 91.1914 26.3527 91.5087 26.11L92.0267 27.286C91.6907 27.5567 91.2894 27.7667 90.8227 27.916C90.356 28.0653 89.8614 28.14 89.3387 28.14ZM96.3226 28.14C95.7066 28.14 95.1653 27.9953 94.6986 27.706C94.232 27.4073 93.868 26.9827 93.6066 26.432C93.3453 25.8813 93.2146 25.2233 93.2146 24.458C93.2146 23.6927 93.3453 23.0393 93.6066 22.498C93.868 21.9473 94.232 21.5273 94.6986 21.238C95.1653 20.9393 95.7066 20.79 96.3226 20.79C96.92 20.79 97.4426 20.9393 97.8906 21.238C98.348 21.5273 98.6513 21.9193 98.8006 22.414H98.6466L98.8006 20.93H100.481C100.453 21.2193 100.425 21.5133 100.397 21.812C100.378 22.1107 100.369 22.4047 100.369 22.694V28H98.6326L98.6186 26.544H98.7866C98.6373 27.0293 98.334 27.4167 97.8766 27.706C97.4193 27.9953 96.9013 28.14 96.3226 28.14ZM96.8126 26.796C97.3633 26.796 97.8066 26.6047 98.1426 26.222C98.4786 25.83 98.6466 25.242 98.6466 24.458C98.6466 23.674 98.4786 23.0907 98.1426 22.708C97.8066 22.3253 97.3633 22.134 96.8126 22.134C96.262 22.134 95.8186 22.3253 95.4826 22.708C95.1466 23.0907 94.9786 23.674 94.9786 24.458C94.9786 25.242 95.142 25.83 95.4686 26.222C95.8046 26.6047 96.2526 26.796 96.8126 26.796ZM105.298 28.14C104.458 28.14 103.824 27.9207 103.394 27.482C102.965 27.0433 102.75 26.3853 102.75 25.508V22.246H101.392V20.93H102.75V19.124L104.5 18.676V20.93H106.39V22.246H104.5V25.396C104.5 25.8813 104.594 26.222 104.78 26.418C104.967 26.614 105.224 26.712 105.55 26.712C105.728 26.712 105.877 26.698 105.998 26.67C106.129 26.642 106.255 26.6047 106.376 26.558V27.944C106.218 28.0093 106.04 28.056 105.844 28.084C105.658 28.1213 105.476 28.14 105.298 28.14ZM110.927 28.14C109.741 28.14 108.813 27.8133 108.141 27.16C107.469 26.5067 107.133 25.6107 107.133 24.472C107.133 23.7347 107.277 23.0907 107.567 22.54C107.856 21.9893 108.257 21.56 108.771 21.252C109.293 20.944 109.9 20.79 110.591 20.79C111.272 20.79 111.841 20.9347 112.299 21.224C112.756 21.5133 113.101 21.9193 113.335 22.442C113.577 22.9647 113.699 23.576 113.699 24.276V24.738H108.547V23.814H112.453L112.215 24.01C112.215 23.3567 112.075 22.8573 111.795 22.512C111.524 22.1667 111.127 21.994 110.605 21.994C110.026 21.994 109.578 22.1993 109.261 22.61C108.953 23.0207 108.799 23.5947 108.799 24.332V24.514C108.799 25.2793 108.985 25.8533 109.359 26.236C109.741 26.6093 110.278 26.796 110.969 26.796C111.37 26.796 111.743 26.7447 112.089 26.642C112.443 26.53 112.779 26.3527 113.097 26.11L113.615 27.286C113.279 27.5567 112.877 27.7667 112.411 27.916C111.944 28.0653 111.449 28.14 110.927 28.14ZM119.162 28V18.13H123.474C124.557 18.13 125.392 18.3867 125.98 18.9C126.578 19.4133 126.876 20.1273 126.876 21.042C126.876 21.6487 126.741 22.1667 126.47 22.596C126.209 23.0253 125.831 23.3567 125.336 23.59C124.842 23.814 124.258 23.926 123.586 23.926L123.782 23.66H124.258C124.65 23.66 125 23.7627 125.308 23.968C125.616 24.1733 125.868 24.486 126.064 24.906L127.506 28H125.518L124.062 24.794C123.932 24.4673 123.731 24.2527 123.46 24.15C123.199 24.0473 122.882 23.996 122.508 23.996H120.968V28H119.162ZM120.968 22.666H123.18C123.815 22.666 124.296 22.5353 124.622 22.274C124.958 22.0033 125.126 21.6113 125.126 21.098C125.126 20.5847 124.958 20.1973 124.622 19.936C124.296 19.6747 123.815 19.544 123.18 19.544H120.968V22.666ZM132.091 28.14C130.905 28.14 129.977 27.8133 129.305 27.16C128.633 26.5067 128.297 25.6107 128.297 24.472C128.297 23.7347 128.441 23.0907 128.731 22.54C129.02 21.9893 129.421 21.56 129.935 21.252C130.457 20.944 131.064 20.79 131.755 20.79C132.436 20.79 133.005 20.9347 133.463 21.224C133.92 21.5133 134.265 21.9193 134.499 22.442C134.741 22.9647 134.863 23.576 134.863 24.276V24.738H129.711V23.814H133.617L133.379 24.01C133.379 23.3567 133.239 22.8573 132.959 22.512C132.688 22.1667 132.291 21.994 131.769 21.994C131.19 21.994 130.742 22.1993 130.425 22.61C130.117 23.0207 129.963 23.5947 129.963 24.332V24.514C129.963 25.2793 130.149 25.8533 130.523 26.236C130.905 26.6093 131.442 26.796 132.133 26.796C132.534 26.796 132.907 26.7447 133.253 26.642C133.607 26.53 133.943 26.3527 134.261 26.11L134.779 27.286C134.443 27.5567 134.041 27.7667 133.575 27.916C133.108 28.0653 132.613 28.14 132.091 28.14ZM141.371 31.024V26.544H141.539C141.389 27.0293 141.086 27.4167 140.629 27.706C140.171 27.9953 139.653 28.14 139.075 28.14C138.459 28.14 137.917 27.9953 137.451 27.706C136.984 27.4073 136.62 26.9827 136.359 26.432C136.097 25.8813 135.967 25.2233 135.967 24.458C135.967 23.6927 136.097 23.0393 136.359 22.498C136.62 21.9473 136.984 21.5273 137.451 21.238C137.917 20.9393 138.459 20.79 139.075 20.79C139.672 20.79 140.195 20.9393 140.643 21.238C141.1 21.5273 141.403 21.9193 141.553 22.414H141.399L141.553 20.93H143.233C143.205 21.2193 143.177 21.5133 143.149 21.812C143.13 22.1107 143.121 22.4047 143.121 22.694V31.024H141.371ZM139.565 26.796C140.115 26.796 140.559 26.6047 140.895 26.222C141.231 25.83 141.399 25.242 141.399 24.458C141.399 23.674 141.231 23.0907 140.895 22.708C140.559 22.3253 140.115 22.134 139.565 22.134C139.014 22.134 138.571 22.3253 138.235 22.708C137.899 23.0907 137.731 23.674 137.731 24.458C137.731 25.242 137.894 25.83 138.221 26.222C138.557 26.6047 139.005 26.796 139.565 26.796ZM147.574 28.14C146.706 28.14 146.058 27.902 145.628 27.426C145.199 26.95 144.984 26.222 144.984 25.242V20.93H146.734V25.228C146.734 25.7507 146.842 26.138 147.056 26.39C147.271 26.6327 147.598 26.754 148.036 26.754C148.531 26.754 148.932 26.586 149.24 26.25C149.558 25.914 149.716 25.4707 149.716 24.92V20.93H151.466V28H149.758V26.558H149.954C149.749 27.062 149.436 27.454 149.016 27.734C148.606 28.0047 148.125 28.14 147.574 28.14ZM156.782 28.14C155.597 28.14 154.668 27.8133 153.996 27.16C153.324 26.5067 152.988 25.6107 152.988 24.472C152.988 23.7347 153.133 23.0907 153.422 22.54C153.711 21.9893 154.113 21.56 154.626 21.252C155.149 20.944 155.755 20.79 156.446 20.79C157.127 20.79 157.697 20.9347 158.154 21.224C158.611 21.5133 158.957 21.9193 159.19 22.442C159.433 22.9647 159.554 23.576 159.554 24.276V24.738H154.402V23.814H158.308L158.07 24.01C158.07 23.3567 157.93 22.8573 157.65 22.512C157.379 22.1667 156.983 21.994 156.46 21.994C155.881 21.994 155.433 22.1993 155.116 22.61C154.808 23.0207 154.654 23.5947 154.654 24.332V24.514C154.654 25.2793 154.841 25.8533 155.214 26.236C155.597 26.6093 156.133 26.796 156.824 26.796C157.225 26.796 157.599 26.7447 157.944 26.642C158.299 26.53 158.635 26.3527 158.952 26.11L159.47 27.286C159.134 27.5567 158.733 27.7667 158.266 27.916C157.799 28.0653 157.305 28.14 156.782 28.14ZM163.556 28.14C162.949 28.14 162.389 28.07 161.876 27.93C161.372 27.7807 160.947 27.5753 160.602 27.314L161.092 26.138C161.447 26.3807 161.839 26.5673 162.268 26.698C162.697 26.8287 163.131 26.894 163.57 26.894C164.037 26.894 164.382 26.8147 164.606 26.656C164.839 26.4973 164.956 26.2827 164.956 26.012C164.956 25.7973 164.881 25.6293 164.732 25.508C164.592 25.3773 164.363 25.2793 164.046 25.214L162.646 24.948C162.049 24.8173 161.591 24.5933 161.274 24.276C160.966 23.9587 160.812 23.5433 160.812 23.03C160.812 22.5913 160.929 22.204 161.162 21.868C161.405 21.532 161.745 21.2707 162.184 21.084C162.632 20.888 163.155 20.79 163.752 20.79C164.275 20.79 164.765 20.86 165.222 21C165.689 21.14 166.081 21.35 166.398 21.63L165.894 22.764C165.605 22.5307 165.273 22.3487 164.9 22.218C164.527 22.0873 164.163 22.022 163.808 22.022C163.323 22.022 162.968 22.1107 162.744 22.288C162.52 22.456 162.408 22.6753 162.408 22.946C162.408 23.1513 162.473 23.324 162.604 23.464C162.744 23.5947 162.959 23.6927 163.248 23.758L164.648 24.024C165.273 24.1453 165.745 24.36 166.062 24.668C166.389 24.9667 166.552 25.3773 166.552 25.9C166.552 26.3667 166.426 26.768 166.174 27.104C165.922 27.44 165.572 27.6967 165.124 27.874C164.676 28.0513 164.153 28.14 163.556 28.14ZM171.005 28.14C170.165 28.14 169.531 27.9207 169.101 27.482C168.672 27.0433 168.457 26.3853 168.457 25.508V22.246H167.099V20.93H168.457V19.124L170.207 18.676V20.93H172.097V22.246H170.207V25.396C170.207 25.8813 170.301 26.222 170.487 26.418C170.674 26.614 170.931 26.712 171.257 26.712C171.435 26.712 171.584 26.698 171.705 26.67C171.836 26.642 171.962 26.6047 172.083 26.558V27.944C171.925 28.0093 171.747 28.056 171.551 28.084C171.365 28.1213 171.183 28.14 171.005 28.14Z" fill="white"/>
<path d="M45.5341 31.1957C40.8207 31.1957 37 27.5703 37 23.0978C37 18.6254 40.8207 15 45.5341 15C50.2474 15 54.0681 18.6254 54.0681 23.0978C54.0681 27.5703 50.2474 31.1957 45.5341 31.1957ZM45.5341 15.8809C41.3563 15.8809 37.9284 19.1336 37.9284 23.0978C37.9284 27.062 41.3563 30.3147 45.5341 30.3147C49.7118 30.3147 53.1397 27.062 53.1397 23.0978C53.1397 19.1336 49.7118 15.8809 45.5341 15.8809Z" fill="white"/>
<path d="M45.3537 27.7395L44.7109 27.0958L48.8887 23.0977L44.7109 19.0996L45.3537 18.4558L50.2456 23.0977L45.3537 27.7395Z" fill="white"/>
<path d="M49.5698 23.572H41V22.6233H49.5698V23.572Z" fill="white"/>
</svg>
