<svg width="60" height="18" viewBox="0 0 60 18" fill="none" xmlns="http://www.w3.org/2000/svg">
<path d="M13.056 14V5.54H16.5C17.388 5.54 18.072 5.756 18.552 6.188C19.032 6.612 19.272 7.204 19.272 7.964C19.272 8.708 19.032 9.3 18.552 9.74C18.072 10.172 17.388 10.388 16.5 10.388H14.052V14H13.056ZM14.052 9.56H16.404C17.02 9.56 17.484 9.42 17.796 9.14C18.116 8.86 18.276 8.468 18.276 7.964C18.276 7.452 18.116 7.056 17.796 6.776C17.484 6.496 17.02 6.356 16.404 6.356H14.052V9.56ZM20.6232 14V9.428C20.6232 9.188 20.6152 8.944 20.5992 8.696C20.5912 8.448 20.5752 8.208 20.5512 7.976H21.4872L21.6072 9.44L21.4392 9.452C21.5192 9.092 21.6592 8.796 21.8592 8.564C22.0592 8.332 22.2952 8.16 22.5672 8.048C22.8392 7.928 23.1232 7.868 23.4192 7.868C23.5392 7.868 23.6432 7.872 23.7312 7.88C23.8272 7.888 23.9152 7.908 23.9952 7.94L23.9832 8.804C23.8632 8.764 23.7512 8.74 23.6472 8.732C23.5512 8.716 23.4392 8.708 23.3112 8.708C22.9592 8.708 22.6512 8.792 22.3872 8.96C22.1312 9.128 21.9352 9.344 21.7992 9.608C21.6712 9.872 21.6072 10.152 21.6072 10.448V14H20.6232ZM27.4083 14.108C26.8323 14.108 26.3283 13.984 25.8963 13.736C25.4723 13.48 25.1443 13.12 24.9123 12.656C24.6803 12.184 24.5643 11.628 24.5643 10.988C24.5643 10.34 24.6803 9.784 24.9123 9.32C25.1443 8.856 25.4723 8.5 25.8963 8.252C26.3283 7.996 26.8323 7.868 27.4083 7.868C27.9923 7.868 28.4963 7.996 28.9203 8.252C29.3523 8.5 29.6843 8.856 29.9163 9.32C30.1563 9.784 30.2763 10.34 30.2763 10.988C30.2763 11.628 30.1563 12.184 29.9163 12.656C29.6843 13.12 29.3523 13.48 28.9203 13.736C28.4963 13.984 27.9923 14.108 27.4083 14.108ZM27.4083 13.316C27.9843 13.316 28.4403 13.12 28.7763 12.728C29.1123 12.328 29.2803 11.748 29.2803 10.988C29.2803 10.22 29.1083 9.64 28.7643 9.248C28.4283 8.848 27.9763 8.648 27.4083 8.648C26.8403 8.648 26.3883 8.848 26.0523 9.248C25.7163 9.64 25.5483 10.22 25.5483 10.988C25.5483 11.748 25.7163 12.328 26.0523 12.728C26.3883 13.12 26.8403 13.316 27.4083 13.316ZM31.7918 16.592V9.368C31.7918 9.144 31.7798 8.916 31.7558 8.684C31.7398 8.444 31.7198 8.208 31.6958 7.976H32.6318L32.7638 9.404H32.6198C32.7478 8.932 33.0078 8.56 33.3998 8.288C33.7918 8.008 34.2598 7.868 34.8038 7.868C35.3478 7.868 35.8158 7.992 36.2078 8.24C36.6078 8.488 36.9198 8.844 37.1438 9.308C37.3678 9.772 37.4798 10.332 37.4798 10.988C37.4798 11.636 37.3678 12.192 37.1438 12.656C36.9278 13.12 36.6198 13.48 36.2198 13.736C35.8198 13.984 35.3478 14.108 34.8038 14.108C34.2678 14.108 33.8038 13.972 33.4118 13.7C33.0198 13.428 32.7598 13.056 32.6318 12.584H32.7638V16.592H31.7918ZM34.6118 13.316C35.1878 13.316 35.6438 13.12 35.9798 12.728C36.3238 12.328 36.4958 11.748 36.4958 10.988C36.4958 10.22 36.3238 9.64 35.9798 9.248C35.6438 8.848 35.1878 8.648 34.6118 8.648C34.0438 8.648 33.5878 8.848 33.2438 9.248C32.9078 9.64 32.7398 10.22 32.7398 10.988C32.7398 11.748 32.9078 12.328 33.2438 12.728C33.5878 13.12 34.0438 13.316 34.6118 13.316ZM41.6631 14.108C40.7191 14.108 39.9751 13.836 39.4311 13.292C38.8871 12.74 38.6151 11.976 38.6151 11C38.6151 10.368 38.7351 9.82 38.9751 9.356C39.2151 8.884 39.5511 8.52 39.9831 8.264C40.4151 8 40.9111 7.868 41.4711 7.868C42.0231 7.868 42.4871 7.984 42.8631 8.216C43.2391 8.448 43.5271 8.78 43.7271 9.212C43.9271 9.636 44.0271 10.14 44.0271 10.724V11.084H39.3591V10.472H43.3911L43.1871 10.628C43.1871 9.988 43.0431 9.488 42.7551 9.128C42.4671 8.768 42.0391 8.588 41.4711 8.588C40.8711 8.588 40.4031 8.8 40.0671 9.224C39.7311 9.64 39.5631 10.204 39.5631 10.916V11.024C39.5631 11.776 39.7471 12.348 40.1151 12.74C40.4911 13.124 41.0151 13.316 41.6871 13.316C42.0471 13.316 42.3831 13.264 42.6951 13.16C43.0151 13.048 43.3191 12.868 43.6071 12.62L43.9431 13.304C43.6791 13.56 43.3431 13.76 42.9351 13.904C42.5351 14.04 42.1111 14.108 41.6631 14.108ZM45.4904 14V9.428C45.4904 9.188 45.4824 8.944 45.4664 8.696C45.4584 8.448 45.4424 8.208 45.4184 7.976H46.3544L46.4744 9.44L46.3064 9.452C46.3864 9.092 46.5264 8.796 46.7264 8.564C46.9264 8.332 47.1624 8.16 47.4344 8.048C47.7064 7.928 47.9904 7.868 48.2864 7.868C48.4064 7.868 48.5104 7.872 48.5984 7.88C48.6944 7.888 48.7824 7.908 48.8624 7.94L48.8504 8.804C48.7304 8.764 48.6184 8.74 48.5144 8.732C48.4184 8.716 48.3064 8.708 48.1784 8.708C47.8264 8.708 47.5184 8.792 47.2544 8.96C46.9984 9.128 46.8024 9.344 46.6664 9.608C46.5384 9.872 46.4744 10.152 46.4744 10.448V14H45.4904ZM52.3262 14.108C51.7342 14.108 51.2822 13.94 50.9702 13.604C50.6582 13.26 50.5022 12.744 50.5022 12.056V8.732H49.3262V7.976H50.5022V6.332L51.4742 6.056V7.976H53.2022V8.732H51.4742V11.948C51.4742 12.428 51.5542 12.772 51.7142 12.98C51.8822 13.18 52.1302 13.28 52.4582 13.28C52.6102 13.28 52.7462 13.268 52.8662 13.244C52.9862 13.212 53.0942 13.176 53.1902 13.136V13.952C53.0782 14 52.9422 14.036 52.7822 14.06C52.6302 14.092 52.4782 14.108 52.3262 14.108ZM54.2158 16.724L53.9878 15.92C54.3638 15.832 54.6758 15.728 54.9238 15.608C55.1798 15.496 55.3918 15.344 55.5598 15.152C55.7278 14.96 55.8718 14.72 55.9918 14.432L56.3038 13.724L56.2798 14.132L53.6518 7.976H54.7078L56.8798 13.268H56.5678L58.7158 7.976H59.7358L56.9518 14.504C56.7918 14.888 56.6158 15.208 56.4238 15.464C56.2318 15.728 56.0238 15.94 55.7998 16.1C55.5838 16.268 55.3438 16.4 55.0798 16.496C54.8158 16.592 54.5278 16.668 54.2158 16.724Z" fill="black"/>
<circle cx="3" cy="10" r="3" fill="#175CD3"/>
</svg>
