<svg width="19" height="19" viewBox="0 0 19 19" fill="none" xmlns="http://www.w3.org/2000/svg">
<path d="M10.7911 9.50025L18.3903 1.90108C18.5404 1.72573 18.6189 1.50016 18.61 1.26945C18.6011 1.03875 18.5054 0.819905 18.3422 0.656652C18.1789 0.493399 17.9601 0.39776 17.7294 0.388849C17.4987 0.379938 17.2731 0.458411 17.0978 0.608585L9.49859 8.20775L1.89943 0.599418C1.72681 0.426806 1.4927 0.329834 1.24859 0.329834C1.00448 0.329834 0.77037 0.426806 0.597759 0.599418C0.425147 0.77203 0.328175 1.00614 0.328175 1.25025C0.328175 1.49436 0.425147 1.72847 0.597759 1.90108L8.20609 9.50025L0.597759 17.0994C0.5018 17.1816 0.423865 17.2827 0.368844 17.3964C0.313822 17.5102 0.282903 17.634 0.278027 17.7603C0.273151 17.8865 0.294422 18.0124 0.340507 18.13C0.386592 18.2477 0.456496 18.3545 0.545829 18.4438C0.635163 18.5332 0.741998 18.6031 0.859629 18.6492C0.97726 18.6953 1.10315 18.7165 1.22939 18.7117C1.35563 18.7068 1.4795 18.6759 1.59323 18.6208C1.70696 18.5658 1.80808 18.4879 1.89026 18.3919L9.49859 10.7928L17.0978 18.3919C17.2731 18.5421 17.4987 18.6206 17.7294 18.6117C17.9601 18.6027 18.1789 18.5071 18.3422 18.3439C18.5054 18.1806 18.6011 17.9618 18.61 17.7311C18.6189 17.5003 18.5404 17.2748 18.3903 17.0994L10.7911 9.50025Z" fill="#ACACAC"/>
</svg>
